<svg xmlns="http://www.w3.org/2000/svg" width="38" height="38" viewBox="0 0 38 38">
  <ellipse cx="8" cy="16" rx="7.6" ry="4.6" fill="#D8F1FB" stroke="#1a1a1a" stroke-width="1.6" transform="rotate(-30 8 16)"/>
  <ellipse cx="26" cy="16" rx="7.6" ry="4.6" fill="#D8F1FB" stroke="#1a1a1a" stroke-width="1.6" transform="rotate(30 26 16)"/>
  <path d="M13.6 7.2c-0.9-1.7-1.8-2.7-1.7-4" stroke="#1a1a1a" stroke-width="1.5" fill="none" stroke-linecap="round"/>
  <circle cx="11.6" cy="2.6" r="1.3" fill="#1a1a1a"/>
  <path d="M20.4 7.2c0.9-1.7 1.8-2.7 1.7-4" stroke="#1a1a1a" stroke-width="1.5" fill="none" stroke-linecap="round"/>
  <circle cx="22.4" cy="2.6" r="1.3" fill="#1a1a1a"/>
  <path d="M17 6.4c4.1 0 7.2 3.1 7.2 7.1 0 2-0.6 3.5-1.5 5.1 1.2 1.7 1.9 4 1.9 6.4 0 4.1-3.4 7.2-7.6 7.2s-7.6-3.1-7.6-7.2c0-2.4 0.7-4.7 1.9-6.4-0.9-1.6-1.5-3.1-1.5-5.1 0-4 3.1-7.1 7.2-7.1z" fill="#1a1a1a"/>
  <path d="M10.9 19.2c1.8 0.7 3.9 1.1 6.1 1.1s4.3-0.4 6.1-1.1" stroke="#F9B83E" stroke-width="2.6" fill="none" stroke-linecap="round"/>
  <path d="M10.4 24.1c2 0.8 4.3 1.2 6.6 1.2s4.6-0.4 6.6-1.2" stroke="#F9B83E" stroke-width="2.6" fill="none" stroke-linecap="round"/>
  <g>
    <circle cx="31" cy="27" r="2.1" fill="#F9B83E"/>
    <circle cx="34.5" cy="22" r="1.3" fill="#F9B83E"/>
    <circle cx="28.5" cy="32.5" r="1.1" fill="#F9B83E"/>
  </g>
</svg>
